<svg width="43" height="67" viewBox="0 0 43 67" fill="none" xmlns="http://www.w3.org/2000/svg">
<g clip-path="url(#clip0_47_275)">
<path d="M33.5706 3.05444C33.5399 3.42186 33.4357 3.77941 33.2641 4.10596C33.0926 4.43251 32.8572 4.72143 32.5718 4.95566C32.2865 5.18988 31.957 5.36465 31.6028 5.46965C31.2486 5.57464 30.877 5.60772 30.5098 5.56694C29.9546 5.5153 29.4274 5.30026 28.9949 4.94911C28.5625 4.59796 28.2443 4.12654 28.0807 3.59465C27.9172 3.06276 27.9157 2.49438 28.0764 1.96163C28.2371 1.42887 28.5527 0.955761 28.9833 0.602321C29.4139 0.24888 29.94 0.0310435 30.4948 -0.0235537C31.0497 -0.0781509 31.6083 0.0329532 32.0997 0.295664C32.5912 0.558375 32.9934 0.960848 33.2553 1.45202C33.5171 1.94319 33.6269 2.50092 33.5706 3.05444Z" fill="#8E1416"/>
<path d="M27.7945 21.3316C27.8439 21.4794 29.5224 19.5088 33.6693 19.361C34.9487 19.3288 36.2213 19.5567 37.4095 20.031C38.5977 20.5053 39.6768 21.216 40.5809 22.1199C42.7532 24.1397 43.8886 28.3272 42.1607 31.7757C38.5568 38.9684 30.2135 41.4809 23.3513 45.964C19.7968 48.0824 16.1435 50.3978 13.132 53.4522C10.1205 56.5066 8.24455 60.8419 9.38003 65.4235C9.52813 65.3743 8.29392 63.7485 8.39266 60.103C8.49139 56.4574 11.3548 51.4324 16.4891 47.3926C21.6234 43.3529 28.7325 39.8059 35.7922 35.175C39.0505 32.9581 41.9633 28.9184 40.2354 24.7802C38.5075 20.6419 32.5832 18.7699 27.7945 21.3316Z" fill="#8E1416"/>
<path d="M15.2549 45.8655C15.2055 45.6684 13.527 47.639 9.33067 47.8361C8.05352 47.8516 6.7858 47.616 5.5999 47.1426C4.414 46.6693 3.33315 45.9675 2.41907 45.0772C1.19784 43.8111 0.396055 42.2011 0.12231 40.4652C-0.151434 38.7292 0.116092 36.9513 0.888647 35.3721C4.44318 28.2287 12.7865 25.6669 19.6487 21.2331C23.2526 19.0655 26.9059 16.75 29.868 13.6956C32.8301 10.6412 34.7555 6.35518 33.62 1.77356C33.4719 1.77356 34.7061 3.39929 34.6074 7.04488C34.5086 10.6905 31.6452 15.7647 26.5109 19.7552C21.3766 23.7456 14.2675 27.3912 7.20781 31.9728C3.94949 34.239 1.03675 38.2787 2.76465 42.3677C4.49254 46.4567 10.4661 48.4272 15.2549 45.8655Z" fill="#8E1416"/>
<path d="M14.7612 64.4875C14.7094 65.0415 14.4939 65.5676 14.142 65.9992C13.7902 66.4307 13.3177 66.7482 12.7847 66.9114C12.2517 67.0746 11.6821 67.0761 11.1483 66.9158C10.6144 66.7554 10.1403 66.4404 9.7861 66.0107C9.43191 65.5811 9.21362 65.0561 9.15891 64.5024C9.1042 63.9487 9.21553 63.3913 9.47879 62.9009C9.74206 62.4105 10.1454 62.0091 10.6376 61.7478C11.1298 61.4865 11.6887 61.3769 12.2434 61.4331C12.6116 61.4638 12.9699 61.5678 13.2971 61.739C13.6244 61.9101 13.9139 62.145 14.1486 62.4298C14.3833 62.7145 14.5585 63.0433 14.6637 63.3968C14.7689 63.7502 14.8021 64.1211 14.7612 64.4875Z" fill="#8E1416"/>
</g>
<defs>
<clipPath id="clip0_47_275">
<rect width="43" height="67" fill="white"/>
</clipPath>
</defs>
</svg>
