<svg width="33" height="52" viewBox="0 0 33 52" fill="none" xmlns="http://www.w3.org/2000/svg">
<g clip-path="url(#clip0_57_906)">
<path d="M25.7635 2.3706C25.7399 2.65576 25.6599 2.93327 25.5283 3.18671C25.3966 3.44015 25.2159 3.66439 24.997 3.84617C24.778 4.02796 24.5251 4.1636 24.2533 4.24509C23.9815 4.32658 23.6962 4.35225 23.4144 4.3206C22.9884 4.28052 22.5838 4.11362 22.2519 3.84109C21.92 3.56856 21.6758 3.20268 21.5503 2.78987C21.4248 2.37706 21.4236 1.93593 21.547 1.52245C21.6703 1.10897 21.9125 0.741778 22.243 0.467465C22.5734 0.193153 22.9772 0.0240862 23.403 -0.0182878C23.8288 -0.0606617 24.2575 0.0255683 24.6346 0.229463C25.0118 0.433358 25.3205 0.745725 25.5214 1.12693C25.7224 1.50814 25.8067 1.941 25.7635 2.3706Z" fill="white"/>
<path d="M21.3306 16.5559C21.3685 16.6706 22.6567 15.1412 25.8392 15.0265C26.8211 15.0015 27.7977 15.1784 28.7096 15.5465C29.6215 15.9146 30.4496 16.4662 31.1435 17.1677C32.8105 18.7353 33.6819 21.9853 32.3559 24.6618C29.5901 30.2442 23.1871 32.1941 17.9207 35.6736C15.1929 37.3177 12.3892 39.1147 10.078 41.4853C7.7669 43.8559 6.32718 47.2206 7.1986 50.7765C7.31226 50.7383 6.36507 49.4765 6.44085 46.6471C6.51662 43.8177 8.71409 39.9177 12.6544 36.7824C16.5947 33.6471 22.0505 30.8941 27.4684 27.3C29.969 25.5794 32.2043 22.4441 30.8783 19.2324C29.5522 16.0206 25.0057 14.5677 21.3306 16.5559Z" fill="white"/>
<path d="M11.7072 35.597C11.6693 35.4441 10.3811 36.9735 7.16069 37.1265C6.18055 37.1385 5.20765 36.9557 4.29755 36.5883C3.38744 36.2209 2.55795 35.6762 1.85645 34.9853C0.919224 34.0027 0.303896 32.7531 0.0938136 31.4058C-0.116269 30.0585 0.0890413 28.6786 0.681932 27.4529C3.40983 21.9088 9.81282 19.9206 15.0792 16.4794C17.845 14.7971 20.6486 13 22.9219 10.6294C25.1951 8.25882 26.6727 4.93235 25.8013 1.37646C25.6877 1.37646 26.6349 2.63823 26.5591 5.46764C26.4833 8.29705 24.2858 12.2353 20.3455 15.3323C16.4052 18.4294 10.9494 21.2588 5.53153 24.8147C3.03095 26.5735 0.79559 29.7088 2.12165 32.8824C3.44771 36.0559 8.03211 37.5853 11.7072 35.597Z" fill="white"/>
<path d="M11.3284 50.0501C11.2887 50.48 11.1233 50.8883 10.8532 51.2233C10.5832 51.5582 10.2206 51.8046 9.81159 51.9313C9.40253 52.058 8.96541 52.0591 8.5557 51.9347C8.14598 51.8102 7.78213 51.5657 7.51031 51.2323C7.23849 50.8988 7.07097 50.4913 7.02898 50.0616C6.98699 49.6319 7.07243 49.1993 7.27447 48.8187C7.47651 48.438 7.78604 48.1265 8.16378 47.9237C8.54152 47.7209 8.97045 47.6359 9.39614 47.6795C9.67871 47.7033 9.95369 47.784 10.2048 47.9168C10.456 48.0497 10.6782 48.232 10.8583 48.453C11.0384 48.674 11.1728 48.9292 11.2536 49.2035C11.3343 49.4778 11.3598 49.7657 11.3284 50.0501Z" fill="white"/>
</g>
<defs>
<clipPath id="clip0_57_906">
<rect width="33" height="52" fill="white"/>
</clipPath>
</defs>
</svg>
