<svg width="25" height="25" viewBox="0 0 25 25" fill="none" xmlns="http://www.w3.org/2000/svg">
<path d="M18.0012 3.5C19.7961 3.5 21.2512 4.95507 21.2512 6.75V18.25C21.2512 20.0449 19.7961 21.5 18.0012 21.5H6.50122C4.7063 21.5 3.25122 20.0449 3.25122 18.25V6.75C3.25122 4.95507 4.7063 3.5 6.50122 3.5H18.0012ZM19.7512 9H4.75122V18.25C4.75122 19.2165 5.53472 20 6.50122 20H18.0012C18.9677 20 19.7512 19.2165 19.7512 18.25V9ZM8.00122 15C8.69158 15 9.25122 15.5596 9.25122 16.25C9.25122 16.9404 8.69158 17.5 8.00122 17.5C7.31086 17.5 6.75122 16.9404 6.75122 16.25C6.75122 15.5596 7.31086 15 8.00122 15ZM12.2512 15C12.9416 15 13.5012 15.5596 13.5012 16.25C13.5012 16.9404 12.9416 17.5 12.2512 17.5C11.5609 17.5 11.0012 16.9404 11.0012 16.25C11.0012 15.5596 11.5609 15 12.2512 15ZM8.00122 11C8.69158 11 9.25122 11.5596 9.25122 12.25C9.25122 12.9404 8.69158 13.5 8.00122 13.5C7.31086 13.5 6.75122 12.9404 6.75122 12.25C6.75122 11.5596 7.31086 11 8.00122 11ZM12.2512 11C12.9416 11 13.5012 11.5596 13.5012 12.25C13.5012 12.9404 12.9416 13.5 12.2512 13.5C11.5609 13.5 11.0012 12.9404 11.0012 12.25C11.0012 11.5596 11.5609 11 12.2512 11ZM16.5012 11C17.1916 11 17.7512 11.5596 17.7512 12.25C17.7512 12.9404 17.1916 13.5 16.5012 13.5C15.8109 13.5 15.2512 12.9404 15.2512 12.25C15.2512 11.5596 15.8109 11 16.5012 11ZM18.0012 5H6.50122C5.53472 5 4.75122 5.7835 4.75122 6.75V7.5H19.7512V6.75C19.7512 5.7835 18.9677 5 18.0012 5Z" fill="currentColor"/>
</svg>
