<svg width="18" height="18" viewBox="0 0 18 18" fill="none" xmlns="http://www.w3.org/2000/svg">
<path d="M14.75 0C16.5449 0 18 1.45507 18 3.25V10.1287C18 10.7254 17.7629 11.2977 17.341 11.7197L11.7197 17.341C11.2977 17.7629 10.7254 18 10.1287 18H3.25C1.45507 18 0 16.5449 0 14.75V3.25C0 1.45507 1.45507 0 3.25 0H14.75ZM14.75 1.5H3.25C2.2835 1.5 1.5 2.2835 1.5 3.25V14.75C1.5 15.7165 2.2835 16.5 3.25 16.5H10V13.25C10 11.517 11.3565 10.1008 13.0656 10.0051L13.25 10H16.5V3.25C16.5 2.2835 15.7165 1.5 14.75 1.5ZM15.439 11.5H13.25C12.3318 11.5 11.5788 12.2071 11.5058 13.1065L11.5 13.25V15.439L15.439 11.5Z" fill="#616161"/>
</svg>
